<svg width="347.050049" height="376.037354" viewBox="0 0 347.05 376.037" fill="none" xmlns="http://www.w3.org/2000/svg" xmlns:xlink="http://www.w3.org/1999/xlink">
	<desc>
			Created with Pixso.
	</desc>
	<defs/>
	<path id="Vector 22" d="M13.81 2.27C24.94 0.95 47.43 0.46 48.34 9.06L48.34 22.47C48.34 23.18 53.3 26.52 54 26.6C54.72 26.68 57.76 26.74 62.49 26.78C62.86 26.78 63.24 26.78 63.62 26.79C64.34 26.79 65.1 26.8 65.89 26.8C66.96 26.81 68.1 26.81 69.28 26.82C94.89 26.93 146.16 26.74 175.15 26.6L182.51 26.6L214.21 26.6L221 26.6L229.49 26.6C230.74 26.6 231.76 25.59 231.76 24.34L231.76 44.14C231.76 46.21 230.74 50.36 226.66 50.36L221 50.36L214.21 50.36L183.07 50.36L177.41 50.36L62.49 50.36L54 50.36L25.71 50.36C16.31 50.36 1.92 52.97 1.92 43.57C0.79 30.75 1.58 4.54 13.81 2.27ZM175.15 26.6C175.15 15.67 184.01 6.8 194.95 6.8L204.36 6.8C214.19 6.8 223.93 13.75 221.5 23.28C221.22 24.37 221 25.48 221 26.6M54 50.36L54 26.6M62.49 26.78L62.49 50.36M77.21 43.57C77.21 43.57 120.68 43.57 148.54 43.57M9.84 44.14C15.88 44.89 34.75 45.84 34.75 45.84M13.24 9.63C13.24 9.63 26.35 9.63 34.75 9.63M177.41 50.36L177.41 90.53M299.69 110.9L299.69 96.76C299.69 93.32 296.9 90.53 293.46 90.53L278.74 90.53L221 90.53L214.77 90.53L183.07 90.53L177.41 90.53L119.67 90.53L103.25 90.53C100.12 90.53 97.59 93.06 97.59 96.19L97.59 110.9M84.57 110.9C83.06 110.71 80.15 111.69 80.61 117.12C81.25 127.79 83.37 147.29 87.1 151.48C88.1 152.6 89.86 152.2 91.36 152.2L92.49 152.2L97.59 152.2L299.69 152.2L301.96 152.2L305.35 152.2C307.53 152.2 309.62 151.33 310.78 149.48C313.51 145.14 318.06 135.16 318.37 116.55C318.56 114.48 317.35 110.44 311.01 110.9L299.69 110.9L293.46 110.9L278.74 110.9L268.55 110.9L128.73 110.9L119.67 110.9L111.18 110.9L104.38 110.9L97.59 110.9L84.57 110.9ZM103.25 90.53L104.38 110.9M119.67 90.53L119.67 110.9M293.46 90.53L293.46 110.9M278.74 90.53L278.74 110.9M221 50.36L221 90.53M100.42 158.42L298.56 158.42M305.35 152.2L345.29 351.75C345.46 352.6 345.55 353.47 345.55 354.34C345.55 357.85 344.15 361.22 341.67 363.7L338.18 367.18C333.47 371.89 327.09 374.53 320.43 374.53L88.96 374.53C75.64 374.53 62.86 369.24 53.43 359.82C52.37 358.76 51.91 357.24 52.2 355.77L92.49 152.2M98.72 166.34L118.54 166.34M94.76 177.09L113.44 177.09M279.88 166.91L298.56 166.91M284.97 177.65C291.6 177.65 295.32 177.65 301.96 177.65M60.23 349.07C76.81 349.07 86.1 349.07 102.69 349.07M60.23 358.69L164.96 362.09M68.72 365.48C90.83 366.14 103.22 366.52 125.33 367.18M294.03 348.51L338.19 349.07M231.76 362.09C231.76 362.09 295.59 360.02 336.49 358.69M272.52 367.18C294.63 366.52 307.02 366.14 329.13 365.48M88.53 122.21L91.36 152.2M95.89 134.09L97.59 152.2M110.61 99.58L111.18 110.9M129.86 99.02L128.73 110.9M267.99 98.45L268.55 110.9M287.24 100.15L287.24 111.46M309.31 121.65L305.35 152.2M301.39 133.53L299.69 152.2M214.21 68.47L214.21 50.36M183.64 68.47L183.07 50.36M183.64 79.78L183.07 90.53M214.21 79.22L214.77 90.53M65.32 27.73L68.15 27.73L68.62 27.73C68.68 27.73 68.75 27.71 68.8 27.67C69.01 27.48 68.85 27.13 68.57 27.17L66.95 27.41C66.47 27.48 66.44 28.15 66.9 28.27C66.98 28.29 67.05 28.33 67.11 28.38L67.25 28.53C67.46 28.74 67.59 29.04 67.59 29.34L67.59 29.46C67.59 30.95 65.6 31.45 64.89 30.15L64.29 29.05C64.22 28.93 64.17 28.8 64.14 28.67L63.62 26.79M65.89 26.8L69.28 26.82M48.34 36.78L48.34 44.14M29.53 13.04C29.96 13.03 30.37 13.24 30.61 13.6C31.01 14.21 30.82 15.03 30.23 15.46C28.92 16.41 27.39 17.87 27.39 19.25C27.39 19.57 27.26 19.78 27.04 19.89C23.8 21.5 25.16 13.02 21.55 13.02C24.7 13.16 26.56 13.11 29.53 13.04ZM26.55 15.03L25.13 17.55L27.96 14.72L25.13 14.16M185.55 15.53L185.54 15.55C183.28 18.77 182.21 22.68 182.51 26.6M213.05 14.03C214.32 15.63 214.9 17.68 214.65 19.71L214.55 20.53L214.21 26.6" stroke="#444A4A" stroke-opacity="1.000000" stroke-width="3.000000"/>
	<path id="Coffee" d="M102.76 244.99Q101.81 249.17 102.51 252.97Q102.51 255.71 102.83 258.84Q103.15 261.97 103.92 265.1Q104.69 268.23 105.99 271.01Q107.3 273.78 109.26 275.93Q109.91 276.63 110.63 277.24Q112.12 278.49 113.94 279.34Q116.65 280.6 120.3 280.6Q121.29 280.6 122.1 280.57Q122.9 280.53 123.68 280.39Q124.45 280.25 125.3 279.94Q126.14 279.62 127.26 279.13Q133.24 276.45 137.07 273.82Q140.9 271.18 143.05 268.79Q145.19 266.4 146 264.4Q146.81 262.39 146.81 260.78Q146.81 260.14 146.49 259.82Q146.18 259.51 145.55 259.51Q145.4 259.51 145.26 259.54Q145.12 259.58 145.05 259.58Q143.01 262.53 141.4 264.71Q139.78 266.89 138.27 268.44Q136.76 269.99 135.17 271.07Q133.59 272.17 131.66 273.08Q129.73 273.99 127.3 274.87Q124.87 275.75 121.71 276.81L120.16 276.81Q117.28 276.81 115.17 275.61Q114.3 275.12 113.54 274.5Q112.45 273.61 111.58 272.45Q110.11 270.48 109.12 267.91Q108.32 265.82 107.82 263.66Q107.71 263.17 107.61 262.67Q107.08 260 106.84 257.44Q106.59 254.87 106.59 252.76Q106.59 247.42 107.54 243.51Q108.47 239.68 110.32 236.36Q110.35 236.3 110.39 236.24Q112.29 232.86 115.1 229.73Q117.91 226.6 121.71 222.95Q121.92 222.81 122.34 222.45Q122.76 222.1 123.26 221.75Q123.75 221.4 124.21 221.05Q124.66 220.7 124.87 220.56Q125.3 220.2 126.14 219.75Q126.98 219.29 127.83 218.87L129.94 217.81L132.4 217.81Q132.45 217.81 132.49 217.82Q132.85 217.9 133.1 218.52Q133.38 219.22 133.52 220.06Q133.66 220.91 133.7 221.72Q133.73 222.53 133.73 222.67Q133.73 222.88 133.77 223.58Q133.8 224.28 133.87 225.06Q133.94 225.83 134.01 226.46Q134.08 227.1 134.08 227.38Q134.08 227.8 134.29 228.03Q134.47 228.23 134.79 228.29Q135.49 228.43 135.98 228.43Q136.4 228.43 136.97 228.26Q137.18 228.19 137.31 228.05Q137.53 227.82 137.53 227.38L137.53 220.56Q137.53 219.57 137.21 218.38Q137.03 217.7 136.75 217.07Q136.54 216.58 136.26 216.13Q135.63 215.07 134.75 214.37Q134.31 214.02 133.81 213.84Q133.31 213.67 132.75 213.67Q129.02 214.44 125.12 216.55Q121.22 218.66 117.67 221.75Q114.12 224.85 111.02 228.68Q107.93 232.51 105.82 236.66Q103.71 240.81 102.76 244.99ZM176.98 302.51L176.98 303.17Q176.98 303.95 176.94 305.07Q176.9 306.2 177.12 307.22Q177.32 308.19 177.84 308.95Q177.87 308.98 177.89 309.01Q178.03 309.2 178.2 309.34Q178.74 309.78 179.65 309.78Q180.98 309.78 182.42 308.94Q183.87 308.1 184.85 307.32Q189 303.81 191.57 299.69Q191.85 299.23 192.11 298.76Q194.13 294.97 194.13 290.1Q194.13 287.92 193.89 286.65Q193.64 285.38 193.11 284.44Q192.58 283.49 191.74 282.57Q190.9 281.66 189.63 280.25Q196.1 279.13 202.43 276.95Q208.57 274.83 213.99 271.52Q214.15 271.42 214.31 271.32Q215.01 270.97 215.23 270.55Q215.44 270.13 215.44 269.56Q215.44 269.43 215.42 269.29Q215.37 268.94 215.19 268.61Q215.11 268.47 215 268.37Q214.74 268.16 214.31 268.16L213.96 268.16Q207.07 271.74 199.58 274.2Q196.52 275.21 193.38 275.83Q188.84 276.72 184.15 276.81L185.2 273.01Q187.38 270.76 189.35 267.81Q190.17 266.58 190.89 265.3Q191.9 263.49 192.73 261.58Q194.13 258.31 195.01 254.94Q195.89 251.56 195.89 248.33Q195.89 247.98 195.78 247.42Q195.68 246.85 195.43 246.36Q195.19 245.87 194.83 245.52Q194.65 245.34 194.43 245.25Q194.23 245.17 193.99 245.17Q192.8 245.17 191.6 246.26Q190.4 247.35 189.39 248.89Q188.37 250.44 187.59 252.02Q186.82 253.6 186.54 254.45L181.4 270.9Q181.12 271.18 180.84 272.03Q180.63 272.8 180.28 274.31Q179.93 275.82 179.44 278.42L176.98 300.43L176.98 302.51ZM212.06 302.51L212.06 303.17Q212.06 303.95 212.03 305.07Q211.99 306.2 212.2 307.22Q212.4 308.19 212.93 308.95Q212.95 308.98 212.98 309.01Q213.11 309.2 213.29 309.34Q213.83 309.78 214.73 309.78Q216.07 309.78 217.51 308.94Q218.95 308.1 219.94 307.32Q224.08 303.81 226.65 299.69Q226.94 299.23 227.19 298.76Q229.22 294.97 229.22 290.1Q229.22 287.92 228.97 286.65Q228.73 285.38 228.2 284.44Q227.67 283.49 226.83 282.57Q225.98 281.66 224.72 280.25Q231.19 279.13 237.51 276.95Q243.64 274.84 249.04 271.54L248.83 274.42Q249.66 277.77 251.76 279.1Q251.99 279.25 252.24 279.37Q254.74 280.6 258.47 280.6Q259.66 280.6 261.39 280.32Q263.11 280.04 265.01 279.48Q266.9 278.92 268.84 278.07Q270.77 277.23 272.28 276.14Q273.79 275.05 274.74 273.68Q274.84 273.54 274.92 273.4L274.85 274.42Q275.67 277.77 277.77 279.1Q278.01 279.25 278.26 279.37Q280.76 280.6 284.48 280.6Q285.68 280.6 287.4 280.32Q289.12 280.04 291.02 279.48Q292.92 278.92 294.85 278.07Q296.79 277.23 298.3 276.14Q299.81 275.05 300.76 273.68Q301.43 272.71 301.63 271.65Q301.71 271.21 301.71 270.76Q301.71 270.2 301.57 269.63Q301.52 269.42 301.38 269.29Q301.16 269.07 300.73 269.07Q300.6 269.07 300.48 269.09Q299.91 269.16 299.39 269.6Q298.76 270.13 298.19 270.83Q297.63 271.53 297.1 272.2Q296.58 272.87 296.23 273.22Q294.47 274.64 292.47 275.51Q291.59 275.89 290.67 276.17Q287.65 277.09 284.34 277.09Q283.22 277.09 282.27 276.98Q281.35 276.88 280.62 276.45Q280.6 276.43 280.58 276.42Q280.25 276.22 279.99 275.95Q279.65 275.62 279.42 275.19Q279 274.42 279 273.15L279 273.01Q279 272.8 279.14 272.31Q279.28 271.81 279.35 271.6Q281.6 269.7 283.36 267.98Q285.12 266.26 286.35 264.29Q286.55 263.97 286.74 263.63Q287.68 261.94 288.17 260Q288.77 257.68 288.77 254.66Q288.77 254.38 288.74 253.64Q288.7 252.9 288.7 252.62Q288.42 251.85 288.03 251.18Q287.9 250.95 287.72 250.81Q287.34 250.51 286.73 250.51Q284.27 250.51 282.62 251.6Q281.84 252.11 281.2 252.76Q280.47 253.48 279.91 254.38Q279.89 254.42 279.86 254.46Q278.84 256.11 278.26 258.03Q277.66 260 277.24 261.69Q277.1 262.11 276.85 263.27Q276.61 264.43 276.29 265.7Q275.98 266.96 275.66 268.05Q275.44 268.8 275.31 269.24Q275.09 269.07 274.71 269.07Q274.59 269.07 274.47 269.09Q273.9 269.16 273.37 269.6Q272.74 270.13 272.18 270.83Q271.62 271.53 271.09 272.2Q270.56 272.87 270.21 273.22Q268.45 274.64 266.45 275.51Q265.58 275.89 264.65 276.17Q261.63 277.09 258.33 277.09Q257.2 277.09 256.25 276.98Q255.33 276.88 254.61 276.45Q254.59 276.43 254.57 276.42Q254.24 276.22 253.97 275.95Q253.64 275.62 253.4 275.19Q252.98 274.42 252.98 273.15L252.98 273.01Q252.98 272.8 253.12 272.31Q253.26 271.81 253.33 271.6Q255.58 269.7 257.34 267.98Q259.1 266.26 260.33 264.29Q260.53 263.97 260.72 263.63Q261.66 261.94 262.16 260Q262.76 257.68 262.76 254.66Q262.76 254.38 262.72 253.64Q262.69 252.9 262.69 252.62Q262.4 251.85 262.02 251.18Q261.89 250.95 261.7 250.81Q261.32 250.51 260.72 250.51Q258.26 250.51 256.6 251.6Q255.83 252.11 255.18 252.76Q254.46 253.48 253.9 254.38Q253.87 254.42 253.84 254.46Q252.83 256.11 252.24 258.03Q251.65 260 251.23 261.69Q251.08 262.11 250.84 263.27Q250.59 264.43 250.28 265.7Q249.96 266.96 249.64 268.05Q249.62 268.12 249.61 268.17Q249.51 268.16 249.4 268.16L249.05 268.16Q242.15 271.74 234.67 274.2Q231.6 275.21 228.46 275.83Q223.93 276.72 219.23 276.81L220.29 273.01Q222.47 270.76 224.44 267.81Q225.25 266.58 225.97 265.3Q226.99 263.49 227.81 261.58Q229.22 258.31 230.1 254.94Q230.98 251.56 230.98 248.33Q230.98 247.98 230.87 247.42Q230.76 246.85 230.52 246.36Q230.27 245.87 229.92 245.52Q229.74 245.34 229.52 245.25Q229.31 245.17 229.08 245.17Q227.88 245.17 226.69 246.26Q225.49 247.35 224.47 248.89Q223.45 250.44 222.68 252.02Q221.9 253.6 221.62 254.45L216.49 270.9Q216.21 271.18 215.93 272.03Q215.72 272.8 215.37 274.31Q215.01 275.82 214.52 278.42L212.06 300.43L212.06 302.51ZM191.11 253.64Q191.32 253.11 191.39 253.11L191.67 252.76Q191.53 255.43 190.4 258.07Q189.28 260.7 187.94 263.1L187.94 262.67Q187.94 262.6 188.15 261.94Q188.37 261.27 188.61 260.39Q188.86 259.51 189.14 258.63Q189.42 257.75 189.63 257.19Q189.77 256.84 190.02 256.13Q190.26 255.43 190.58 254.8Q190.9 254.17 191.11 253.64ZM226.19 253.64Q226.4 253.11 226.48 253.11L226.76 252.76Q226.62 255.43 225.49 258.07Q224.37 260.7 223.03 263.1L223.03 262.67Q223.03 262.6 223.24 261.94Q223.45 261.27 223.7 260.39Q223.94 259.51 224.23 258.63Q224.51 257.75 224.72 257.19Q224.86 256.84 225.1 256.13Q225.35 255.43 225.67 254.8Q225.98 254.17 226.19 253.64ZM145.05 274.56Q144.98 274.98 144.98 275.05Q144.98 276.53 145.58 278.21Q145.94 279.23 146.64 279.86Q147.11 280.28 147.73 280.53Q147.94 280.53 148.57 280.57Q149.2 280.6 149.48 280.6Q151.2 280.6 152.86 280.29Q154.87 279.92 156.8 279.09Q159.24 278.04 161.27 276.47Q162.17 275.77 162.98 274.98Q163.9 274.09 164.68 273.1Q166.21 271.2 167.27 268.93Q168.1 267.16 168.52 265.31Q168.93 263.54 168.96 261.69L169.73 261.34L178.52 259.37Q178.8 259.31 179.05 259.19Q179.42 259 179.72 258.67Q180.02 258.32 180.14 257.91Q180.21 257.67 180.21 257.4Q180.21 257.21 180.15 257.03Q180.05 256.69 179.75 256.42Q179.34 256.03 178.9 256Q178.85 255.99 178.8 255.99Q177.68 255.99 176.48 256.35Q174.8 257.05 173.99 257.26Q173.18 257.47 172.48 257.51Q171.77 257.54 170.79 257.57Q169.8 257.61 167.62 257.96Q167.2 257.47 166.39 256.87Q165.58 256.28 164.64 255.71Q163.69 255.15 162.74 254.76Q161.79 254.38 161.15 254.38Q157.99 254.38 155.78 255.43Q154.55 256.01 153.49 256.81Q152.63 257.46 151.87 258.24Q150.19 260 148.89 262.32Q147.58 264.64 146.39 267.17L145.4 271.6L145.4 272.31Q145.4 272.45 145.33 272.83Q145.26 273.22 145.19 273.68Q145.12 274.13 145.05 274.56ZM257.03 258Q257.83 256.98 259.24 255.71Q259.1 257.4 258.82 258.7Q258.54 260 257.98 261.13Q257.41 262.25 256.53 263.31Q255.65 264.36 254.32 265.42Q254.67 263.73 254.99 262.46Q255.3 261.2 255.76 260.11Q256.22 259.02 257.03 258ZM283.04 258Q283.85 256.98 285.26 255.71Q285.12 257.4 284.83 258.7Q284.55 260 283.99 261.13Q283.43 262.25 282.55 263.31Q281.67 264.36 280.33 265.42Q280.69 263.73 281 262.46Q281.32 261.2 281.78 260.11Q282.23 259.02 283.04 258ZM149.57 276.64Q149.5 276.56 149.48 276.45Q149.41 276.17 149.41 275.4L149.41 274.42Q149.41 273.64 149.48 272.66Q149.55 271.67 149.69 270.69Q149.83 269.7 150.12 268.86Q150.4 268.02 150.89 267.53L156.73 261.34L156.8 261.34Q158.9 261.34 161.15 261.72Q163.4 262.11 165.65 262.11Q165.65 262.24 165.65 262.38Q165.59 264.91 164.28 267.42Q163.65 268.64 162.85 269.74Q161.92 271.01 160.77 272.13Q159.61 273.25 158.3 274.15Q157.18 274.91 155.95 275.51Q153.28 276.81 150.75 276.81L150.05 276.81Q149.71 276.81 149.57 276.64ZM182.11 288.2Q182.46 285.45 182.74 283.28Q182.88 282.78 183.09 282.36Q183.19 282.17 183.35 282.06Q183.53 281.94 183.8 281.94L184.15 281.94Q185.98 282.57 187.31 283.2Q188.65 283.84 189.49 284.79Q190.33 285.74 190.72 287.11Q191.11 288.48 190.97 290.45Q190.9 292.06 189.98 294.53Q189.07 296.99 187.66 299.34Q186.26 301.7 184.46 303.35Q182.8 304.88 181.05 304.99Q180.91 305 180.77 305Q180.77 302.47 180.98 299.59Q181.19 296.7 181.48 293.82Q181.76 290.94 182.11 288.2ZM217.19 288.2Q217.55 285.45 217.83 283.28Q217.97 282.78 218.18 282.36Q218.28 282.17 218.43 282.06Q218.62 281.94 218.88 281.94L219.23 281.94Q221.06 282.57 222.4 283.2Q223.73 283.84 224.58 284.79Q225.42 285.74 225.81 287.11Q226.19 288.48 226.05 290.45Q225.98 292.06 225.07 294.53Q224.15 296.99 222.75 299.34Q221.34 301.7 219.55 303.35Q217.89 304.88 216.13 304.99Q216 305 215.86 305Q215.86 302.47 216.07 299.59Q216.28 296.7 216.56 293.82Q216.84 290.94 217.19 288.2Z" fill="#444A4A" fill-opacity="1.000000" fill-rule="evenodd"/>
</svg>
