<svg width="368.699951" height="267.045593" viewBox="0 0 368.7 267.046" fill="none" xmlns="http://www.w3.org/2000/svg" xmlns:xlink="http://www.w3.org/1999/xlink">
	<desc>
			Created with Pixso.
	</desc>
	<defs/>
	<path id="Vector 23" d="M54.84 36.28C51.67 59.78 52.84 119.38 82.84 169.78L88.58 177.78L96.84 189.28C97.64 189.93 98.72 190.82 99.81 191.78C102.13 193.82 104.57 196.2 104.84 197.28C105.24 198.88 106.01 200.62 106.34 201.28L106.84 201.28C132.51 218.45 198.24 242.78 255.84 202.78L255.34 202.28L254.84 201.78C265.67 199.12 287.84 195.08 289.84 200.28L295.34 196.28M255.84 202.78C233.34 217.28 172.54 236.98 109.34 199.78L105.84 196.78L101.84 192.28L99.81 191.78M109.34 199.78L109.34 206.28C135.01 220.78 200.24 240.38 255.84 202.78M269.34 185.78C274.01 188.12 285.74 193.48 295.34 196.28C300.67 197.12 310.04 200.48 304.84 207.28C298.51 212.28 278.74 223.18 250.34 226.78C225.17 231.12 163.94 237.18 120.34 226.78C81.34 219.78 21.44 202.68 93.84 190.28L96.84 189.28M86.34 200.78C85.84 201.45 85.24 202.68 86.84 202.28C88.44 201.88 98.84 199.45 103.84 198.28L102.84 196.28L86.34 200.78ZM82.84 169.78C37.51 174.12 -37.16 192.78 26.84 232.78C63.67 253.12 170.84 284.68 304.84 248.28C355.67 230.12 422.54 188.88 283.34 169.28M314.84 62.78C314.5 65.77 314.05 69.34 313.49 73.28C313.18 75.51 312.82 77.85 312.44 80.28C310.27 94.1 307.03 110.79 302.91 124.28C302.56 125.43 302.2 126.55 301.84 127.64C301.31 129.25 300.76 130.8 300.2 132.28C298.82 135.93 297.37 139.15 295.84 141.78L283.34 169.28L276.34 177.53L269.34 185.78L255.34 202.28M289.84 196.78L270.34 188.78L262.84 197.78L278.84 194.78L280.84 195.78L282.34 195.78L271.34 191.78L269.34 192.78L267.84 194.78L271.34 194.28M295.84 141.78C325.01 138.62 379.44 121.58 363.84 78.78C359.51 68.95 343.64 51.98 314.84 62.78L313.49 73.28M300.2 132.28C301.45 132.06 302.96 131.76 304.61 131.4C311.57 129.87 320.9 127.2 322.84 124.28C325.24 120.68 325.17 122.78 324.84 124.28L301.84 127.64M302.91 124.28L304.61 131.4M302.91 124.28C311.19 124 324.21 121.58 333.84 115.08C334.22 114.82 334.6 114.55 334.97 114.28C336.35 113.27 337.65 112.17 338.84 110.97C339.83 109.98 340.75 108.92 341.57 107.78C344.52 103.74 346.34 98.8 346.34 92.78C345.74 86.28 338.13 74.68 312.44 80.28M313.49 73.28C318.77 72.28 329.64 70.58 330.84 71.78M341.57 107.78C344.58 110.95 347.47 116.68 334.97 114.28M338.84 110.97C341.17 113.11 343.44 116.91 333.84 115.08M313.49 36.28C287.21 65.88 214.11 70.28 180.84 68.78C152.17 70.45 86.84 66.28 54.84 36.28C53.61 33.44 54.27 29.72 58.41 25.78C68.84 15.88 101.27 4.57 180.84 2.28C265.64 -0.16 299.47 13.53 309.82 25.78C313.05 29.6 313.99 33.28 313.49 36.28L313.49 73.28M64.84 87.28C73.67 124.78 100.14 200.28 135.34 202.28M309.82 25.78C308.35 27.7 306.16 29.91 303.22 32.28C297.05 37.25 287.56 42.91 274.34 48C253.23 56.13 222.61 62.78 180.84 62.78C159.3 62.57 122.54 59.36 94.34 49.77C81.15 45.28 69.84 39.4 62.81 31.78C61.07 29.89 59.59 27.89 58.41 25.78M62.81 31.78C69.66 26.45 86.14 16.28 97.34 18.28M146.34 10.78C154.34 9.78 171.74 7.98 177.34 8.78M188.84 8.78C198.84 8.62 219.04 8.78 219.84 10.78M94.34 49.77C117.01 40.75 184.74 27.77 274.34 48M276.34 177.53C290.17 177.62 318.84 179.18 322.84 184.78M88.58 177.78C71.83 178.12 37.44 180.88 33.84 189.28M57.34 215.28C70.34 224.12 105.94 241.38 144.34 239.78M230.34 237.28C247.67 235.28 284.34 229.78 292.34 223.78M266.84 17.28C277.59 19.28 299.92 25.08 303.22 32.28M298.84 64.78C299.01 84.45 292.44 135.38 264.84 181.78M250.34 196.78L258.34 188.28" stroke="#AF9283" stroke-opacity="1.000000" stroke-width="4.000000"/>
</svg>
