<svg width="236.000000" height="42.531250" viewBox="0 0 236 42.5312" fill="none" xmlns="http://www.w3.org/2000/svg" xmlns:xlink="http://www.w3.org/1999/xlink">
	<desc>
			Created with Pixso.
	</desc>
	<defs/>
	<rect rx="0.000000" width="166.000000" height="37.000000" transform="translate(69.500000 2.000000)" fill="#FFFFFF" fill-opacity="0"/>
	<path d="M70.65 28.78L76.75 24.81L76.93 24.81Q77.84 25.81 78.89 26.71Q79.87 27.56 80.95 28.23Q81.03 28.28 81.1 28.32Q82.28 29.03 83.54 29.45Q84.81 29.87 86.21 29.87Q87.46 29.87 88.48 29.43Q89.22 29.11 89.81 28.61Q90.02 28.42 90.21 28.21Q90.33 28.09 90.43 27.96Q90.99 27.27 91.32 26.39Q91.71 25.34 91.71 24.12Q91.71 23.85 91.7 23.58Q91.65 22.29 91.34 21.01Q90.96 19.46 90.37 17.92Q89.78 16.37 89.03 14.93Q88.28 13.5 87.56 12.15L87.56 11.71Q88.28 9.93 88.7 8.23Q89.12 6.53 89.12 4.65Q89.12 4 89 3.2Q88.9 2.58 88.68 2Q88.61 1.84 88.54 1.68Q88.23 1.01 87.73 0.54Q87.7 0.51 87.67 0.48Q87.54 0.37 87.41 0.29Q86.93 0 86.28 0Q85.46 0 84.87 0.35Q84.63 0.5 84.41 0.68Q84.1 0.94 83.85 1.28Q83.81 1.34 83.77 1.4Q83.41 1.91 83.21 2.54Q83 3.25 83 3.93Q83 4.75 83.07 5.57Q83.15 6.4 83.46 7.12L85.62 12.15L85.62 12.25Q85.62 12.75 85.25 13.35Q84.87 13.96 84.37 14.56Q83.87 15.15 83.42 15.68Q82.96 16.21 82.87 16.59L80.09 19.46L79.68 19.26Q79.28 19.06 78.68 18.78Q78.09 18.5 77.37 18.15Q76.65 17.81 76 17.51Q75.34 17.21 74.89 17.04Q74.43 16.87 74.31 16.87Q73.87 16.87 73.64 17.09Q73.4 17.32 73.4 17.81Q73.4 18.06 73.42 18.2Q73.43 18.34 73.59 18.56L76 23.43Q76 23.46 75.84 23.59Q75.68 23.71 75.48 23.89Q75.28 24.06 75.03 24.23Q74.78 24.4 74.65 24.53Q74.4 24.68 73.73 25.06Q73.06 25.43 72.34 25.89Q71.62 26.34 70.96 26.71Q70.31 27.09 70.06 27.28Q69.84 27.43 69.7 27.64Q69.63 27.73 69.6 27.84Q69.56 27.96 69.56 28.09Q69.56 28.32 69.67 28.46Q69.74 28.56 69.85 28.62Q70.09 28.75 70.34 28.77Q70.4 28.78 70.46 28.78L70.65 28.78ZM85.18 7.07Q84.65 5.65 84.65 3.9Q84.65 3.46 84.73 3.06Q84.81 2.65 84.98 2.34Q85.02 2.27 85.06 2.21Q85.22 1.99 85.5 1.84Q85.84 1.65 86.34 1.65Q86.48 1.65 86.61 1.7Q86.91 1.83 87.09 2.26Q87.34 2.87 87.43 3.64Q87.53 4.4 87.54 5.06Q87.56 5.71 87.56 5.84L87.56 5.93Q87.53 6.09 87.48 6.4Q87.43 6.71 87.4 7.04Q87.37 7.37 87.32 7.62Q87.28 7.87 87.28 7.93Q87.25 8 87.18 8.31Q87.12 8.62 87.03 8.98Q86.93 9.34 86.81 9.64Q86.68 9.93 86.53 10.03Q85.71 8.5 85.18 7.07ZM188.29 24.82Q188.27 24.83 188.25 24.84Q188.03 24.96 187.62 25.14Q187.21 25.31 186.7 25.51Q186.18 25.71 185.62 25.96Q185.06 26.21 184.53 26.43Q183.25 26.96 181.75 27.56L179 37.93Q178.81 38.68 178.29 39.5Q178.14 39.73 177.98 39.95Q177.58 40.5 177.09 41Q176.44 41.65 175.65 42.06Q175.61 42.08 175.57 42.1Q174.81 42.5 174.03 42.52Q173.96 42.53 173.9 42.53Q173.19 42.53 172.64 42.22Q172.52 42.16 172.4 42.07Q172.27 41.98 172.15 41.87Q171.69 41.47 171.37 40.92Q171.26 40.72 171.17 40.52Q170.92 39.99 170.79 39.4Q170.62 38.59 170.62 37.87Q170.62 36.37 171.11 35.04Q171.28 34.58 171.51 34.14Q171.73 33.71 171.99 33.3Q172.75 32.08 173.79 31.04Q175.18 29.65 176.89 28.56Q178.59 27.46 180.21 26.65L181.12 23.75Q180.96 23.93 180.51 24.37Q180.06 24.81 179.56 25.29Q179.06 25.78 178.59 26.2Q178.12 26.62 177.93 26.78Q177.56 27.09 177.03 27.5Q176.5 27.9 175.89 28.26Q175.28 28.62 174.65 28.85Q174.03 29.09 173.53 29.09Q172.86 29.09 172.65 28.78Q172.64 28.77 172.64 28.76Q172.43 28.43 172.43 27.81Q172.43 27.31 172.51 26.78Q172.52 26.73 172.52 26.68Q172.43 26.72 172.32 26.78Q171.75 27.06 171.09 27.4Q170.43 27.75 169.85 28.06Q169.28 28.37 169.03 28.46Q168.59 28.71 168.06 28.92Q167.53 29.12 166.96 29.31Q166.4 29.5 165.85 29.6Q165.31 29.71 164.87 29.71Q164.18 29.71 163.75 29.48Q163.39 29.29 163.18 28.99Q163.13 28.93 163.09 28.85Q162.87 28.46 162.79 27.92Q162.71 27.37 162.78 26.78Q162.15 27.28 161.43 27.84Q160.99 28.18 160.52 28.5Q160.23 28.69 159.93 28.87Q159.15 29.34 158.34 29.68Q157.71 29.95 157.05 30.01Q156.87 30.03 156.68 30.03Q156.36 30.03 156.08 29.91Q155.96 29.86 155.84 29.79Q155.78 29.75 155.72 29.71Q155.44 29.47 155.31 29.06L155.31 28.09Q154.93 26.76 155.02 25.45Q155.05 24.93 155.17 24.4Q155.47 22.98 156.16 21.78Q156.35 21.45 156.57 21.14Q156.78 20.84 157.01 20.56Q157.91 19.48 159.17 18.7Q159.83 18.28 160.56 18Q161.54 17.62 162.62 17.5L163.18 17.5Q163.87 17.5 164.32 17.79Q164.56 17.95 164.75 18.15Q164.92 18.33 165.04 18.56Q165.31 19.03 165.42 19.62Q165.53 20.21 165.53 20.81Q165.53 21.62 165.35 22.39Q165.18 23.15 164.98 23.93Q164.78 24.71 164.6 25.48Q164.43 26.25 164.43 27.09L164.43 27.28Q164.46 27.34 164.51 27.64Q164.56 27.93 164.59 28Q164.65 28 164.9 28.01Q165.15 28.03 165.21 28.03Q165.53 28.03 165.82 28.01Q166.12 28 166.43 27.87L172.37 25.12Q172.4 25.12 172.48 25.1Q172.56 25.09 172.59 25.09Q172.64 25.09 172.69 25.09L173.68 22.4Q173.96 22.12 174.23 21.53L174.76 20.34Q175.03 19.75 175.32 19.31Q175.6 18.91 175.91 18.87Q175.94 18.87 175.96 18.87Q176.22 18.87 176.43 18.97Q176.52 19.02 176.6 19.09Q176.68 19.15 176.73 19.23Q176.87 19.42 176.87 19.71Q176.87 20.03 176.79 20.26Q176.71 20.5 176.56 20.87Q176.15 21.71 175.76 22.46Q175.37 23.21 175.04 23.96Q174.93 24.21 174.84 24.46Q174.65 24.98 174.51 25.51Q174.31 26.31 174.31 27.28L174.43 27.28L174.62 27.17Q174.81 27.06 175.04 26.92Q175.28 26.78 175.53 26.62Q175.78 26.46 175.96 26.34Q177.36 25.42 178.5 24.25Q178.75 23.98 179 23.7Q180.31 22.18 181.59 20.56Q181.71 20.37 181.81 20.28Q181.9 20.18 181.96 20.14Q181.97 20.13 181.97 20.13Q182.03 20.09 182.12 20.09L182.4 20.09Q182.84 20.09 183.1 20.26Q183.37 20.43 183.43 21.03Q183.46 21.43 183.37 22.01Q183.3 22.45 183.19 22.89Q183.16 23.02 183.12 23.15Q182.96 23.71 182.79 24.26Q182.62 24.81 182.5 25.12L182.5 25.59Q182.56 25.56 182.79 25.5Q183.03 25.43 183.12 25.4Q183.31 25.37 184.15 25.06Q185 24.75 185.98 24.39Q186.96 24.03 187.81 23.71Q188.43 23.48 188.71 23.37Q188.73 23.31 188.75 23.25Q188.93 22.56 189.15 21.76Q189.37 20.96 189.57 20.28Q189.78 19.59 189.87 19.34Q189.9 19.21 190.07 18.79Q190.25 18.37 190.46 17.87L190.9 16.87Q191.12 16.37 191.21 16.12Q191.43 15.68 191.89 14.96Q192.34 14.25 192.92 13.6Q193.5 12.96 194.12 12.48Q194.75 12 195.28 12Q195.51 12 195.67 12.11Q195.7 12.13 195.73 12.15Q195.87 12.28 195.94 12.43Q195.96 12.47 195.98 12.51Q196.06 12.71 196.09 12.96Q196.12 13.21 196.12 13.4Q196.12 13.6 196.11 13.8Q196.06 15.23 195.67 16.64Q195.39 17.62 194.99 18.54Q194.74 19.14 194.43 19.71Q194.3 19.97 194.15 20.22Q193.46 21.41 192.57 22.48Q191.5 23.78 190.31 24.81Q190.28 24.9 190.23 25.18Q190.18 25.46 190.15 25.59L190.15 25.65Q190.15 26.23 190.43 26.59Q190.45 26.62 190.48 26.65Q190.64 26.84 190.84 26.97Q191.04 27.11 191.28 27.2Q191.75 27.37 192.32 27.43Q192.9 27.5 193.43 27.5Q193.71 27.5 194.26 27.21Q194.81 26.93 195.39 26.57Q195.96 26.21 196.53 25.93Q197.05 25.67 197.33 25.65L197.37 25.12Q197.43 24.93 197.57 24.45Q197.71 23.96 197.85 23.4Q198 22.84 198.1 22.32Q198.21 21.81 198.28 21.62Q198.46 20.87 198.73 20Q198.99 19.14 199.44 18.41Q199.45 18.39 199.46 18.37Q199.71 17.97 200.04 17.65Q200.32 17.36 200.67 17.14Q201.4 16.65 202.5 16.65Q202.77 16.65 202.93 16.78Q203.02 16.85 203.07 16.95Q203.25 17.25 203.37 17.59Q203.37 17.71 203.39 18.04Q203.4 18.37 203.4 18.5Q203.4 19.84 203.14 20.87Q202.91 21.73 202.5 22.48Q202.41 22.63 202.32 22.78Q201.78 23.65 201 24.42Q200.21 25.18 199.21 26.03Q199.18 26.12 199.12 26.34Q199.06 26.56 199.06 26.65L199.06 26.71Q199.06 27.28 199.25 27.62Q199.35 27.81 199.5 27.96Q199.62 28.08 199.76 28.17Q199.77 28.17 199.78 28.18Q200.1 28.37 200.51 28.42Q200.93 28.46 201.43 28.46Q202.9 28.46 204.25 28.06Q204.66 27.93 205.04 27.76Q205.93 27.37 206.71 26.75Q206.87 26.59 207.1 26.29Q207.34 26 207.59 25.68Q207.84 25.37 208.12 25.14Q208.35 24.94 208.61 24.91Q208.66 24.9 208.71 24.9Q208.91 24.9 209.01 25Q209.07 25.06 209.09 25.15Q209.15 25.4 209.15 25.65Q209.15 25.85 209.12 26.05Q209.03 26.52 208.73 26.95Q208.31 27.56 207.64 28.04Q206.96 28.53 206.1 28.9Q205.25 29.28 204.4 29.53Q203.56 29.78 202.79 29.9Q202.03 30.03 201.5 30.03Q199.84 30.03 198.73 29.48Q198.62 29.42 198.51 29.36Q197.59 28.78 197.23 27.32Q196.51 27.85 195.59 28.29Q194.65 28.75 193.79 29.06Q192.93 29.37 192.65 29.37Q191.71 29.56 190.9 29.39Q190.09 29.21 189.5 28.79Q189.17 28.56 188.91 28.28Q188.69 28.04 188.51 27.76Q188.13 27.17 188.03 26.54Q188.03 26.52 188.03 26.5L188.29 24.82ZM78.48 23.96Q78.31 23.78 78.31 23.75L78.31 23.62L84.09 17.34L86.56 13.87L89.28 20.4Q89.59 21.25 89.73 22.18Q89.87 23.12 89.87 24Q89.87 24.24 89.85 24.49Q89.81 25.05 89.67 25.6Q89.46 26.4 89.03 27.01Q88.84 27.27 88.61 27.48Q88.3 27.77 87.92 27.98Q87.25 28.34 86.31 28.34Q85.68 28.34 85.07 28.26Q84.46 28.18 83.75 27.87Q83.68 27.84 83.34 27.65Q83 27.46 82.62 27.25L81.87 26.81Q81.5 26.59 81.31 26.5Q81.25 26.46 81.04 26.29Q80.84 26.12 80.6 25.92Q80.37 25.71 80.14 25.54Q79.9 25.37 79.81 25.28Q79.62 25.12 79.37 24.87L78.89 24.39Q78.65 24.15 78.48 23.96ZM193.64 15.48Q194 15.03 194.28 15.03L194.28 15.37Q194.28 15.43 194.14 15.85L193.81 16.84Q193.62 17.4 193.4 17.98Q193.18 18.56 193.06 18.9Q193 19 192.78 19.39Q192.56 19.78 192.43 19.96Q192.31 20.18 192.04 20.51Q191.78 20.84 191.54 21.15Q191.31 21.46 191.12 21.7L190.93 21.93L190.78 21.93Q190.84 21.71 191.01 21.21Q191.18 20.71 191.37 20.17Q191.56 19.62 191.75 19.12Q191.93 18.62 192.03 18.4Q192.06 18.21 192.32 17.67Q192.59 17.12 192.93 16.53Q193.28 15.93 193.64 15.48ZM93.15 28.59L93.15 29.06Q93.28 29.47 93.56 29.71Q93.62 29.75 93.68 29.79Q93.8 29.86 93.92 29.91Q94.2 30.03 94.53 30.03Q94.71 30.03 94.9 30.01Q95.55 29.95 96.18 29.68Q97 29.34 97.78 28.87Q98.08 28.69 98.37 28.5Q98.83 28.18 99.28 27.84Q100 27.28 100.62 26.78Q100.56 27.37 100.64 27.92Q100.71 28.46 100.93 28.85Q100.97 28.93 101.02 28.99Q101.23 29.29 101.59 29.48Q102.03 29.71 102.71 29.71Q103.15 29.71 103.7 29.6Q104.25 29.5 104.81 29.31Q105.37 29.12 105.9 28.92Q106.43 28.71 106.87 28.46Q107.12 28.37 107.7 28.06Q108.28 27.75 108.93 27.4Q109.59 27.06 110.17 26.78Q110.44 26.64 110.64 26.54Q110.48 27.14 110.34 27.76Q110.18 28.46 110.09 29.25L110.09 29.37Q110.09 29.71 110.26 29.86Q110.34 29.92 110.45 29.95Q110.81 30.03 111.15 30.03Q111.25 30.03 111.43 30.01L111.62 30L111.9 29.68L113.78 23.62Q113.84 23.37 113.94 23.15Q114.05 22.91 114.2 22.7Q114.5 22.28 114.89 21.98Q114.93 21.95 114.97 21.92Q115.33 21.66 115.75 21.5Q116.01 21.39 116.29 21.34Q116.5 21.31 116.71 21.31Q117.06 21.31 117.24 21.48L117.25 21.48Q117.3 21.53 117.34 21.58Q117.46 21.72 117.53 21.9Q117.62 22.15 117.65 22.45Q117.68 22.75 117.71 23Q117.68 23.75 117.56 24.53Q117.43 25.31 117.29 26.07Q117.15 26.84 117.04 27.6Q116.93 28.37 116.93 29.12Q116.93 29.28 116.95 29.57Q116.96 29.73 117.04 29.8Q117.11 29.87 117.25 29.87L118.31 29.87L118.65 29.56Q118.68 29.06 118.85 28.29Q119.03 27.53 119.31 26.64Q119.59 25.75 119.98 24.85Q120.37 23.96 120.87 23.25Q121.37 22.53 121.96 22.06Q122.45 21.67 122.98 21.6Q123.09 21.59 123.21 21.59L123.7 21.59Q123.92 21.59 124.05 21.7Q124.07 21.72 124.09 21.75Q124.09 21.84 124.1 22.15Q124.12 22.46 124.12 22.56Q124.12 23.26 124.03 23.96Q123.97 24.37 123.89 24.78Q123.65 25.87 123.65 27.06Q123.65 27.12 123.67 27.45Q123.68 27.78 123.68 27.87Q124.04 28.79 124.68 29.08Q124.71 29.09 124.75 29.1Q125.43 29.37 126.43 29.37Q127.18 29.37 127.88 29.18Q128.17 29.09 128.45 28.98Q128.92 28.79 129.35 28.52Q129.79 28.26 130.18 27.92Q130.28 27.83 130.38 27.74Q131.04 27.13 131.56 26.37Q131.58 26.34 131.6 26.3Q131.4 27.23 131.4 28.21Q131.4 28.56 131.49 28.88Q131.58 29.17 131.73 29.43Q131.82 29.59 131.96 29.71Q132.29 30 132.87 30Q133.75 30 134.82 29.45Q135.9 28.9 136.96 28.14Q138.03 27.37 138.93 26.54Q139.84 25.71 140.4 25.12Q140.4 25.28 140.45 25.6Q140.5 25.93 140.54 26.34Q140.59 26.75 140.64 27.09Q140.68 27.43 140.71 27.56Q140.75 27.75 140.87 28.1Q141 28.46 141.2 28.81Q141.4 29.15 141.67 29.42Q141.88 29.63 142.12 29.67Q142.18 29.68 142.25 29.68Q142.67 29.68 143.09 29.62Q144.14 29.47 145.14 28.93Q145.65 28.65 146.13 28.31Q146.92 27.73 147.59 26.98Q148.15 26.34 148.61 25.63Q149.01 25 149.32 24.32Q150 22.87 150.18 21.46Q150.21 21.43 150.32 21.37Q150.43 21.31 150.5 21.31Q151.21 21.25 151.6 21.23Q152 21.21 152.23 21.21Q152.46 21.21 152.59 21.2Q152.71 21.18 152.92 21.14Q153.12 21.09 153.51 20.98Q153.9 20.87 154.62 20.59Q154.87 20.53 155.17 20.42Q155.46 20.31 155.71 20.17Q155.96 20.03 156.14 19.82Q156.14 19.82 156.14 19.82Q156.31 19.61 156.31 19.28Q156.31 19.08 156.23 18.94Q156.17 18.85 156.09 18.78Q155.97 18.67 155.83 18.63Q155.72 18.59 155.59 18.59L155.46 18.59Q155.37 18.59 155.34 18.62Q154.68 18.93 154.29 19.12Q153.9 19.31 153.68 19.42Q153.46 19.53 153.31 19.57Q153.15 19.62 152.92 19.62L151.09 19.62Q150.82 19.54 150.61 19.39Q150.57 19.37 150.53 19.34Q150.28 19.15 150.04 18.93Q149.81 18.71 149.56 18.54Q149.38 18.42 149.19 18.38Q149.11 18.37 149.03 18.37Q148.79 18.37 148.62 18.47Q148.5 18.55 148.4 18.68Q148.33 18.78 148.28 18.9Q148.18 19.13 148.18 19.4Q148.18 19.84 148.26 20.26Q148.34 20.68 148.34 21.15Q148.34 22.03 147.87 23.18Q147.4 24.34 146.64 25.39Q145.87 26.43 144.93 27.15Q144 27.87 143.06 27.87L142.85 27.87Q142.82 27.87 142.8 27.86Q142.74 27.83 142.71 27.71Q142.5 27.06 142.45 26.7Q142.4 26.34 142.4 25.75Q142.4 24.34 142.81 23.12Q143.21 21.9 143.78 20.56Q143.78 20.53 143.79 20.43Q143.81 20.34 143.81 20.31Q143.81 20.03 143.57 19.75Q143.41 19.54 143.2 19.49Q143.12 19.46 143.03 19.46L142.87 19.46Q142.81 19.46 142.56 19.53Q142.31 19.59 142.25 19.62Q141.78 20.84 140.79 22.14Q139.81 23.43 138.56 24.62Q137.31 25.81 135.95 26.76Q134.59 27.71 133.4 28.18Q133.34 28.12 133.31 27.95Q133.28 27.78 133.28 27.71Q133.28 27.62 133.31 27.28Q133.34 26.93 133.4 26.78Q133.43 26.65 133.54 26.31Q133.65 25.96 133.78 25.57Q133.9 25.18 134.01 24.84Q134.12 24.5 134.18 24.34L134.18 24.21Q134.18 24.15 134.31 23.98Q134.43 23.81 134.46 23.75L136 20.09L136 19.9Q136 19.5 135.8 19.27Q135.8 19.26 135.79 19.26Q135.76 19.23 135.73 19.2Q135.53 19.03 135.18 19.03Q135.15 19.03 135.12 19.03Q134.75 19.06 134.4 19.42Q134.03 19.81 133.67 20.48Q133.31 21.15 132.96 22.07Q132.63 22.98 132.35 24.01Q132.3 23.96 132.23 23.92Q131.96 23.75 131.75 23.75Q131.43 23.75 131.12 24.06Q130.81 24.37 130.45 24.82Q130.09 25.28 129.67 25.81Q129.61 25.88 129.56 25.95Q129.18 26.4 128.73 26.79Q128.45 27.04 128.15 27.24Q127.89 27.41 127.6 27.56Q127.54 27.59 127.48 27.62Q126.92 27.87 126.25 27.87Q125.9 27.87 125.72 27.7Q125.62 27.59 125.57 27.42Q125.46 26.96 125.46 26.53Q125.46 25.76 125.6 25.01Q125.65 24.76 125.71 24.51Q125.96 23.53 125.96 22.46L125.96 21.31Q125.71 20.75 125.12 20.28Q124.58 19.85 124.01 19.81Q123.96 19.81 123.9 19.81Q123.15 19.81 122.56 19.98Q122.18 20.09 121.83 20.26Q121.63 20.36 121.45 20.48Q120.93 20.81 120.5 21.26Q120.06 21.71 119.53 22.25Q119.21 20.87 118.51 20.25Q117.81 19.62 116.43 19.62Q115.56 19.62 114.93 19.96Q114.31 20.31 113.59 20.87Q113.31 20.62 113.07 20.5Q112.84 20.37 112.46 20.37Q112.42 20.34 112.38 20.32Q112.08 20.19 111.6 20.46Q111.06 20.78 110.54 21.31Q110.06 21.8 109.72 22.37Q109.69 22.42 109.67 22.46Q109.31 23.09 109.32 23.46Q109.33 23.59 109.39 23.68Q109.51 23.84 109.85 23.84Q110.37 23.84 111.62 23.12L111.62 23.28Q111.34 24.21 111.1 24.95Q111.05 25.13 110.99 25.32Q110.97 25.3 110.95 25.28Q110.89 25.22 110.83 25.19Q110.66 25.09 110.43 25.09Q110.4 25.09 110.32 25.1Q110.25 25.12 110.21 25.12L104.28 27.87Q103.96 28 103.67 28.01Q103.37 28.03 103.06 28.03Q103 28.03 102.75 28.01Q102.5 28 102.43 28Q102.4 27.93 102.35 27.64Q102.31 27.34 102.28 27.28L102.28 27.09Q102.28 26.25 102.45 25.48Q102.62 24.71 102.82 23.93Q103.03 23.15 103.2 22.39Q103.37 21.62 103.37 20.81Q103.37 20.21 103.26 19.62Q103.15 19.03 102.89 18.56Q102.76 18.33 102.59 18.15Q102.41 17.95 102.17 17.79Q101.71 17.5 101.03 17.5L100.46 17.5Q99.38 17.62 98.4 18Q97.68 18.28 97.01 18.7Q95.76 19.48 94.86 20.56Q94.63 20.84 94.42 21.14Q94.2 21.45 94.01 21.78Q93.32 22.98 93.01 24.4Q92.9 24.93 92.86 25.45Q92.77 26.76 93.15 28.09L93.15 28.59ZM200.85 19.98Q201.21 19.53 201.84 18.96Q201.78 19.71 201.65 20.29Q201.53 20.87 201.28 21.37Q201.03 21.87 200.64 22.34Q200.25 22.81 199.65 23.28Q199.81 22.53 199.95 21.96Q200.09 21.4 200.29 20.92Q200.5 20.43 200.85 19.98ZM75.92 19.85Q75.87 19.68 75.87 19.62L76.31 19.62L79.03 20.4L79.18 20.56Q79.15 20.59 78.9 20.85Q78.65 21.12 78.34 21.42Q78.03 21.71 77.75 21.98Q77.46 22.25 77.37 22.25L77.25 22.25Q77.21 22.25 77.07 21.98Q76.93 21.71 76.73 21.39Q76.53 21.06 76.32 20.68Q76.12 20.31 76 20.09Q75.96 20.03 75.92 19.85ZM96.43 27.98Q95.56 28.4 94.84 28.4L94.84 27.56L95.59 23.9Q95.62 23.81 95.7 23.67Q95.78 23.53 95.89 23.37Q96 23.21 96.09 23.1Q96.18 23 96.21 23Q96.37 22.84 96.79 22.4Q97.21 21.96 97.7 21.46Q98.18 20.96 98.62 20.54Q99.06 20.12 99.25 19.96Q99.31 19.93 99.51 19.93L99.78 19.93Q100.25 19.93 100.53 20Q100.81 20.06 101.21 20.4Q101.21 20.46 101.23 20.59Q101.25 20.71 101.25 20.78Q101.25 21.45 101.12 22.1Q101.07 22.32 101.01 22.54Q100.78 23.4 100.75 24.34Q100.37 24.9 99.68 25.6Q99 26.31 98.15 26.93Q97.31 27.56 96.43 27.98ZM158.59 27.98Q157.71 28.4 157 28.4L157 27.56L157.75 23.9Q157.78 23.81 157.85 23.67Q157.93 23.53 158.04 23.37Q158.15 23.21 158.25 23.1Q158.34 23 158.37 23Q158.53 22.84 158.95 22.4Q159.37 21.96 159.85 21.46Q160.34 20.96 160.78 20.54Q161.21 20.12 161.4 19.96Q161.46 19.93 161.67 19.93L161.93 19.93Q162.4 19.93 162.68 20Q162.96 20.06 163.37 20.4Q163.37 20.46 163.39 20.59Q163.4 20.71 163.4 20.78Q163.4 21.45 163.27 22.1Q163.23 22.32 163.17 22.54Q162.93 23.4 162.9 24.34Q162.53 24.9 161.84 25.6Q161.15 26.31 160.31 26.93Q159.46 27.56 158.59 27.98ZM172.39 38.78Q172.31 38.28 172.31 37.87Q172.31 36.5 172.98 35.03Q173.03 34.93 173.07 34.82Q173.72 33.47 174.71 32.28Q175.77 31.01 177.05 30.04Q177.06 30.03 177.07 30.03Q178.37 29.06 179.62 28.65L178.71 32.59L178.71 32.71Q178.71 32.81 178.59 33.32Q178.46 33.84 178.29 34.5Q178.12 35.15 177.93 35.82Q177.75 36.5 177.65 36.87Q177.46 37.4 177.15 38.09Q177.03 38.35 176.9 38.6Q176.67 39.01 176.39 39.39Q175.93 40 175.35 40.42Q175.01 40.67 174.62 40.77Q174.36 40.84 174.09 40.84Q173.68 40.84 173.39 40.65Q173.3 40.6 173.23 40.53Q172.9 40.21 172.68 39.75Q172.51 39.38 172.43 39Q172.4 38.89 172.39 38.78Z" fill="#000000" fill-opacity="1.000000" fill-rule="evenodd"/>
	<path d="M7.53 17.21L9.95 18.48L15.55 20.65L21.77 23.91L23.99 25.06C24.58 25.37 25.23 25.56 25.89 25.62L37.95 26.62L53.84 27.1C54.61 27.12 54.95 28.08 54.37 28.58C54.21 28.72 54.02 28.79 53.81 28.79L52.88 28.79L53.31 28.79C53.44 28.79 53.56 28.84 53.65 28.92C54.02 29.24 53.78 29.85 53.3 29.83L36.71 29.33L24.05 27.83C23.37 27.75 22.71 27.53 22.12 27.18L16.17 23.72C15.76 23.48 15.32 23.3 14.86 23.19L7.34 21.32C7.01 21.23 6.68 21.12 6.37 20.97L5.78 20.68C4.18 19.9 4.38 17.56 6.09 17.07C6.57 16.93 7.09 16.98 7.53 17.21Z" fill="#2D635E" fill-opacity="1.000000" fill-rule="nonzero"/>
	<path d="M10.55 30.49L13.25 30.01C13.74 29.92 14.22 29.76 14.67 29.53L16.79 28.43L20.17 26.34C21.03 25.81 22.01 25.53 23.02 25.53C23.59 25.53 24.12 25.19 24.34 24.66L24.59 24.09L24.6 24.09L29.18 25.69C30.01 25.98 30.34 26.97 29.86 27.7L29.86 27.7C29.26 29.12 28.28 30.34 27.01 31.22L26.75 31.41C26.14 31.83 25.49 32.18 24.79 32.45L22.1 33.49C18.05 34.84 13.6 33.9 10.43 31.04L10.4 31.01C10.22 30.84 10.31 30.54 10.55 30.49Z" fill="#2D635E" fill-opacity="1.000000" fill-rule="nonzero"/>
	<path d="M25.73 12.72L25.63 13.3L25.21 16.14L24.56 18.84C24.1 20.75 23.9 22.7 23.96 24.63C23.97 24.65 23.98 24.67 23.98 24.69L24.5 25.41L25.12 26.48L25.14 26.49L26.33 26.85C26.61 26.94 26.85 27.09 27.05 27.29L27.5 27.76C28.44 28.73 30.13 27.98 30.18 26.57C30.18 26.48 30.19 26.4 30.2 26.31L30.29 25.85C30.78 23.3 30.8 20.69 30.36 18.18C29.98 16.05 29.27 14.01 28.26 12.14C27.64 11.02 25.94 11.41 25.73 12.72Z" fill="#2D635E" fill-opacity="1.000000" fill-rule="nonzero"/>
	<path d="M7.15 4.61L8.9 4.24C10.22 3.97 11.48 3.48 12.65 2.81L14.29 1.86C14.57 1.7 14.91 1.91 14.9 2.23C14.72 6.41 12.53 10.24 9.02 12.51C7.6 13.33 7.02 15.09 7.67 16.6L8.4 18.29L8.4 18.31L7.66 20.59C7.54 20.95 7.21 21.19 6.83 21.19C6.42 21.19 6.02 21.13 5.63 21.02L3.73 20.47L3.72 20.47C1.46 19.15 0.18 16.62 0.46 14.01L0.62 12.52L0.62 12.5L0.93 11.79L0.93 11.78C0.93 10.37 1.37 9 2.19 7.85C3.38 6.19 5.15 5.04 7.15 4.61Z" fill="#2D635E" fill-opacity="1.000000" fill-rule="nonzero"/>
	<path d="M13.87 32.02C14.33 32.33 15.26 32.59 15.67 32.67C16.07 32.77 15.85 32.8 15.67 32.85C15.68 32.76 15.58 32.61 15.06 32.72C14.54 32.82 14.02 32.59 13.83 32.46C14.05 32.41 14.24 32.27 13.26 32.06C12.04 31.8 12.78 31.15 12.73 31.41C12.7 31.62 13.1 31.76 13.31 31.8C13.32 31.71 13.42 31.71 13.87 32.02Z" fill="#FFFFFF" fill-opacity="1.000000" fill-rule="nonzero"/>
	<path d="M13.87 32.02C13.42 31.71 13.32 31.71 13.31 31.8C13.1 31.76 12.7 31.62 12.73 31.41C12.78 31.15 12.04 31.8 13.26 32.06C14.24 32.27 14.05 32.41 13.83 32.46C14.02 32.59 14.54 32.82 15.06 32.72C15.58 32.61 15.68 32.76 15.67 32.85C15.85 32.8 16.07 32.77 15.67 32.67C15.26 32.59 14.33 32.33 13.87 32.02Z" stroke="#FFFFFF" stroke-opacity="1.000000" stroke-width="0.100000"/>
</svg>
