<?xml version="1.0" ?><svg viewBox="0 0 64 64" xmlns="http://www.w3.org/2000/svg"><title/><g id="bean"><path d="M31,53.46A16.78,16.78,0,0,1,24,55C12.4,55,3,42.91,3,28S12.4,1,24,1C34.81,1,43.71,11.5,44.87,25" style="fill:none;stroke:#000;stroke-linecap:round;stroke-miterlimit:10;stroke-width:2px"/><path d="M22,7c0,6.83,4,7.5,4,14.33S22,28.17,22,35s4,7.17,4,14" style="fill:none;stroke:#000;stroke-linecap:round;stroke-miterlimit:10;stroke-width:2px"/><ellipse cx="45" cy="44" rx="16" ry="19" style="fill:none;stroke:#000;stroke-linecap:round;stroke-miterlimit:10;stroke-width:2px"/><path d="M47,31c0,4.33-4,4.33-4,8.66s4,4.34,4,8.67S43,52.67,43,57" style="fill:none;stroke:#000;stroke-linecap:round;stroke-miterlimit:10;stroke-width:2px"/><line style="fill:none;stroke:#000;stroke-linecap:round;stroke-linejoin:round;stroke-width:2px" x1="44" x2="45" y1="3" y2="4"/><line style="fill:none;stroke:#000;stroke-linecap:round;stroke-linejoin:round;stroke-width:2px" x1="48" x2="49" y1="4" y2="3"/><line style="fill:none;stroke:#000;stroke-linecap:round;stroke-linejoin:round;stroke-width:2px" x1="45" x2="44" y1="7" y2="8"/><line style="fill:none;stroke:#000;stroke-linecap:round;stroke-linejoin:round;stroke-width:2px" x1="48" x2="49" y1="7" y2="8"/><line style="fill:none;stroke:#000;stroke-linecap:round;stroke-linejoin:round;stroke-width:2px" x1="57" x2="58" y1="18" y2="19"/><line style="fill:none;stroke:#000;stroke-linecap:round;stroke-linejoin:round;stroke-width:2px" x1="61" x2="62" y1="19" y2="18"/><line style="fill:none;stroke:#000;stroke-linecap:round;stroke-linejoin:round;stroke-width:2px" x1="58" x2="57" y1="22" y2="23"/><line style="fill:none;stroke:#000;stroke-linecap:round;stroke-linejoin:round;stroke-width:2px" x1="61" x2="62" y1="22" y2="23"/><line style="fill:none;stroke:#000;stroke-linecap:round;stroke-linejoin:round;stroke-width:2px" x1="4" x2="5" y1="54" y2="55"/><line style="fill:none;stroke:#000;stroke-linecap:round;stroke-linejoin:round;stroke-width:2px" x1="8" x2="9" y1="55" y2="54"/><line style="fill:none;stroke:#000;stroke-linecap:round;stroke-linejoin:round;stroke-width:2px" x1="5" x2="4" y1="58" y2="59"/><line style="fill:none;stroke:#000;stroke-linecap:round;stroke-linejoin:round;stroke-width:2px" x1="8" x2="9" y1="58" y2="59"/></g></svg>