<svg width="27.052063" height="7.707031" viewBox="0 0 27.0521 7.70703" fill="none" xmlns="http://www.w3.org/2000/svg" xmlns:xlink="http://www.w3.org/1999/xlink">
	<desc>
			Created with Pixso.
	</desc>
	<defs/>
	<path id="Vector 1" d="M0.86 4.68L0.84 4.7C0.37 4.7 0 4.32 0 3.85C0 3.37 0.37 3 0.84 3L0.86 3.02L0.86 4.68ZM22.27 1.45L22.24 1.45C21.91 1.11 21.91 0.58 22.24 0.25C22.58 -0.09 23.11 -0.09 23.45 0.25L23.45 0.28L22.27 1.45ZM23.45 7.42L23.45 7.45C23.11 7.79 22.58 7.79 22.24 7.45C21.91 7.11 21.91 6.58 22.24 6.25L22.27 6.25L23.45 7.42Z" fill="#000000" fill-opacity="1.000000" fill-rule="nonzero"/>
	<path id="Vector 1" d="M0.84 3.85L25.85 3.85M22.85 6.85L25.85 3.85C25.85 3.85 24.02 2.02 22.85 0.85" stroke="#000000" stroke-opacity="1.000000" stroke-width="1.700000" stroke-linecap="round"/>
</svg>
