<svg width="0" height="0" class="hidden">
  <symbol id="facebook" xmlns="http://www.w3.org/2000/svg" xmlns:xlink="http://www.w3.org/1999/xlink" viewBox="0 0 32 32">
    <g id="surface1">
      <path d="M 14.546875 12.363281 L 14.546875 13.816406 L 13.089844 13.816406 L 13.089844 16 L 14.546875 16 L 14.546875 22.546875 L 17.453125 22.546875 L 17.453125 16 L 19.390625 16 L 19.636719 13.816406 L 17.453125 13.816406 L 17.453125 12.546875 C 17.453125 11.957031 17.511719 11.644531 18.421875 11.644531 L 19.636719 11.644531 L 19.636719 9.453125 L 17.6875 9.453125 C 15.359375 9.453125 14.546875 10.546875 14.546875 12.363281 Z M 14.546875 12.363281 "></path>
      <path d="M 16 0 C 7.164062 0 0 7.164062 0 16 C 0 24.835938 7.164062 32 16 32 C 24.835938 32 32 24.835938 32 16 C 32 7.164062 24.835938 0 16 0 Z M 16 30.546875 C 7.964844 30.546875 1.453125 24.035156 1.453125 16 C 1.453125 7.964844 7.964844 1.453125 16 1.453125 C 24.035156 1.453125 30.546875 7.964844 30.546875 16 C 30.546875 24.035156 24.035156 30.546875 16 30.546875 Z M 16 30.546875 "></path>
    </g>
  </symbol>
  <symbol xmlns="http://www.w3.org/2000/svg" xmlns:xlink="http://www.w3.org/1999/xlink" viewBox="0 0 32 32" id="instagram">
    <g id="surface1">
      <path d="M 30.742188 9.773438 C 29.9375 7.867188 28.785156 6.15625 27.3125 4.6875 C 25.84375 3.21875 24.132812 2.0625 22.230469 1.257812 C 20.257812 0.421875 18.160156 0 16 0 C 13.839844 0 11.746094 0.421875 9.773438 1.257812 C 7.867188 2.0625 6.15625 3.21875 4.6875 4.6875 C 3.21875 6.15625 2.0625 7.867188 1.257812 9.769531 C 0.421875 11.746094 0 13.839844 0 16 C 0 18.160156 0.421875 20.253906 1.257812 22.226562 C 2.0625 24.132812 3.214844 25.84375 4.6875 27.3125 C 6.15625 28.78125 7.867188 29.9375 9.769531 30.742188 C 11.742188 31.578125 13.839844 32 16 32 C 18.160156 32 20.253906 31.578125 22.226562 30.742188 C 24.132812 29.9375 25.84375 28.78125 27.3125 27.3125 C 28.78125 25.84375 29.9375 24.132812 30.742188 22.230469 C 31.578125 20.253906 32 18.160156 32 16 C 32 13.839844 31.578125 11.746094 30.742188 9.773438 Z M 16 30.511719 C 12.125 30.511719 8.480469 29 5.738281 26.257812 C 3 23.519531 1.488281 19.875 1.488281 16 C 1.488281 8 8 1.488281 16 1.488281 C 19.875 1.488281 23.519531 3 26.261719 5.742188 C 29 8.480469 30.511719 12.125 30.511719 16 C 30.511719 24 24 30.511719 16 30.511719 Z M 16 30.511719 "></path>
      <path d="M 21.621094 11.394531 C 21.621094 10.820312 21.160156 10.355469 20.585938 10.355469 C 20.015625 10.355469 19.550781 10.820312 19.550781 11.394531 C 19.550781 11.964844 20.015625 12.429688 20.585938 12.429688 C 21.160156 12.429688 21.621094 11.964844 21.621094 11.394531 Z M 21.621094 11.394531 "></path>
      <path d="M 16 20.496094 C 13.519531 20.496094 11.503906 18.480469 11.503906 16 C 11.503906 13.519531 13.519531 11.503906 16 11.503906 C 18.480469 11.503906 20.496094 13.519531 20.496094 16 C 20.496094 18.480469 18.480469 20.496094 16 20.496094 Z M 16 12.910156 C 14.296875 12.910156 12.910156 14.296875 12.910156 16 C 12.910156 17.703125 14.296875 19.089844 16 19.089844 C 17.703125 19.089844 19.089844 17.703125 19.089844 16 C 19.089844 14.296875 17.703125 12.910156 16 12.910156 Z M 16 12.910156 "></path>
      <path d="M 18.863281 25 L 13.136719 25 C 9.90625 25 7.277344 22.371094 7.277344 19.140625 L 7.277344 12.859375 C 7.277344 9.628906 9.90625 7 13.136719 7 L 18.863281 7 C 22.09375 7 24.722656 9.628906 24.722656 12.859375 L 24.722656 19.140625 C 24.722656 22.371094 22.09375 25 18.863281 25 Z M 13.136719 8.40625 C 10.679688 8.40625 8.683594 10.402344 8.683594 12.859375 L 8.683594 19.140625 C 8.683594 21.597656 10.679688 23.59375 13.136719 23.59375 L 18.863281 23.59375 C 21.320312 23.59375 23.316406 21.597656 23.316406 19.140625 L 23.316406 12.859375 C 23.316406 10.402344 21.320312 8.40625 18.863281 8.40625 Z M 13.136719 8.40625 "></path>
    </g>
  </symbol>
 
  <symbol xmlns="http://www.w3.org/2000/svg" xmlns:xlink="http://www.w3.org/1999/xlink" viewBox="0 0 32 32" id="twitter">
    <g id="surface1">
      <path d="M 16 1.878906 C 23.941406 1.878906 30.398438 8.339844 30.398438 16.277344 C 30.398438 24.21875 23.941406 30.679688 16 30.679688 C 8.058594 30.679688 1.601562 24.21875 1.601562 16.277344 C 1.601562 8.339844 8.058594 1.878906 16 1.878906 M 16 0.277344 C 7.164062 0.277344 0 7.441406 0 16.277344 C 0 25.117188 7.164062 32.277344 16 32.277344 C 24.835938 32.277344 32 25.117188 32 16.277344 C 32 7.441406 24.835938 0.277344 16 0.277344 Z M 16 0.277344 "></path>
      <path d="M 25.210938 10.566406 C 24.535156 10.867188 23.804688 11.070312 23.042969 11.160156 C 23.824219 10.691406 24.421875 9.953125 24.703125 9.070312 C 23.972656 9.503906 23.164062 9.816406 22.304688 9.984375 C 21.613281 9.25 20.632812 8.792969 19.542969 8.792969 C 17.457031 8.792969 15.765625 10.484375 15.765625 12.574219 C 15.765625 12.867188 15.796875 13.15625 15.863281 13.433594 C 12.71875 13.277344 9.933594 11.769531 8.070312 9.484375 C 7.746094 10.042969 7.558594 10.691406 7.558594 11.382812 C 7.558594 12.695312 8.226562 13.851562 9.238281 14.53125 C 8.621094 14.511719 8.039062 14.339844 7.527344 14.058594 C 7.527344 14.074219 7.527344 14.089844 7.527344 14.105469 C 7.527344 15.9375 8.832031 17.464844 10.5625 17.8125 C 10.242188 17.898438 9.910156 17.945312 9.566406 17.945312 C 9.320312 17.945312 9.085938 17.921875 8.855469 17.875 C 9.335938 19.378906 10.730469 20.472656 12.386719 20.5 C 11.089844 21.515625 9.460938 22.121094 7.691406 22.121094 C 7.386719 22.121094 7.085938 22.101562 6.789062 22.066406 C 8.460938 23.140625 10.449219 23.765625 12.582031 23.765625 C 19.535156 23.765625 23.339844 18.003906 23.339844 13.007812 C 23.339844 12.847656 23.335938 12.683594 23.328125 12.519531 C 24.066406 11.988281 24.707031 11.324219 25.210938 10.566406 Z M 25.210938 10.566406 "></path>
    </g>
  </symbol>
</svg>